<svg width="366" height="230" viewBox="0 0 366 230" fill="none" xmlns="http://www.w3.org/2000/svg">
<path d="M300.015 95.167C301.299 81.2174 295.551 69.2768 287.176 68.4969C278.802 67.7169 270.972 78.3931 269.688 92.3427C268.404 106.292 274.152 118.233 282.526 119.013C290.901 119.793 298.73 109.117 300.015 95.167Z" stroke="#FF66D0" stroke-miterlimit="10"/>
<path d="M219.5 215C223.402 217.522 228.808 217.01 234.064 213.974C238.343 211.504 242.566 207.438 245.92 202.184C250.25 195.396 252.185 188.112 251.669 182.297C251.306 178.198 249.725 174.83 246.911 172.875C247.818 173.338 248.692 173.857 249.525 174.423C250.715 175.228 251.832 176.135 252.86 177.127" stroke="#FF66D0" stroke-miterlimit="10"/>
<path d="M219.5 215C219.5 215 238.065 225.79 250.555 205.396C263.045 185.002 250.106 175.172 250.106 175.172" stroke="#FF66D0" stroke-miterlimit="10"/>
<path d="M246.906 172.875C242.083 170.896 236.957 171.621 232.446 174.231C229.027 176.21 225.301 178.84 222.371 182.648C221.646 183.593 220.943 184.589 220.283 185.628C213.934 195.574 212 210.5 219.5 215" stroke="#FF66D0" stroke-miterlimit="10"/>
<path d="M262.627 87.8643V87.8691" stroke="#FF66D0" stroke-miterlimit="10"/>
<path d="M302 75.5C309 82.5 311.923 93 313 100C316 119.5 311.269 134.293 300.321 158.7C287.274 187.78 268.074 209.16 251.711 214.961C247.974 216.641 238 220.5 225 217" stroke="#FF66D0" stroke-miterlimit="10"/>
<path d="M262.627 87.8643V87.8691" stroke="#FF66D0" stroke-miterlimit="10"/>
<path d="M285.748 118.769C285.93 118.994 286.12 119.246 286.311 119.518C287.52 121.23 288.79 123.77 288.083 126.25C281.097 150.643 272.627 164.654 263.66 175.354C259.864 179.878 255.692 178.806 252.869 177.131" stroke="#FF66D0" stroke-miterlimit="10"/>
<path d="M256 187C260.67 187.973 269 190.574 275.093 182.385C283.558 171.007 291.842 160.795 299.939 127.859C301.73 120.565 297 115.5 297 115.5" stroke="#FF66D0" stroke-miterlimit="10"/>
<path d="M242.708 200.101C248.632 190.813 249.228 180.569 244.039 177.221C238.85 173.872 229.841 178.688 223.917 187.976C217.993 197.265 217.397 207.509 222.586 210.857C227.775 214.205 236.784 209.39 242.708 200.101Z" stroke="#FF66D0" stroke-miterlimit="10"/>
<path d="M296.016 94.7954C297.034 83.7376 292.702 74.2933 286.341 73.7008C279.98 73.1084 273.997 81.5922 272.98 92.65C271.962 103.708 276.293 113.152 282.655 113.745C289.016 114.337 294.998 105.853 296.016 94.7954Z" stroke="#FF66D0" stroke-miterlimit="10"/>
<path d="M228.355 197.847C228.797 197.209 228.808 196.448 228.379 196.146C227.949 195.844 227.242 196.116 226.799 196.754C226.356 197.391 226.345 198.153 226.775 198.455C227.204 198.757 227.912 198.485 228.355 197.847Z" fill="#FF66D0"/>
<path d="M230.885 201.246C231.328 200.609 231.339 199.847 230.909 199.545C230.48 199.244 229.772 199.516 229.33 200.153C228.887 200.791 228.876 201.552 229.306 201.854C229.735 202.156 230.442 201.884 230.885 201.246Z" fill="#FF66D0"/>
<path d="M236.153 198.871C236.595 198.233 236.606 197.472 236.177 197.17C235.747 196.868 235.04 197.14 234.597 197.778C234.154 198.415 234.143 199.177 234.573 199.479C235.003 199.781 235.71 199.508 236.153 198.871Z" fill="#FF66D0"/>
<path d="M233.686 195.099C234.129 194.462 234.14 193.7 233.71 193.399C233.281 193.097 232.574 193.369 232.131 194.006C231.688 194.644 231.677 195.405 232.107 195.707C232.536 196.009 233.243 195.737 233.686 195.099Z" fill="#FF66D0"/>
<path d="M230.319 192.054C230.761 191.417 230.772 190.655 230.343 190.353C229.913 190.051 229.206 190.323 228.763 190.961C228.32 191.598 228.309 192.36 228.739 192.662C229.169 192.964 229.876 192.692 230.319 192.054Z" fill="#FF66D0"/>
<path d="M235.817 189C236.26 188.363 236.271 187.601 235.841 187.299C235.412 186.998 234.705 187.27 234.262 187.907C233.819 188.545 233.808 189.306 234.238 189.608C234.667 189.91 235.375 189.638 235.817 189Z" fill="#FF66D0"/>
<path d="M238.398 192.328C238.84 191.69 238.851 190.929 238.421 190.627C237.992 190.325 237.285 190.597 236.842 191.235C236.399 191.872 236.388 192.634 236.818 192.936C237.247 193.238 237.955 192.966 238.398 192.328Z" fill="#FF66D0"/>
<path d="M281.525 98.8431C281.624 98.0717 281.283 97.3917 280.763 97.3242C280.243 97.2567 279.742 97.8272 279.643 98.5985C279.544 99.3698 279.885 100.05 280.404 100.117C280.924 100.185 281.426 99.6144 281.525 98.8431Z" fill="#FF66D0"/>
<path d="M285.327 100.671C285.426 99.8999 285.085 99.2199 284.566 99.1523C284.046 99.0848 283.544 99.6553 283.445 100.427C283.346 101.198 283.687 101.878 284.207 101.946C284.727 102.013 285.228 101.442 285.327 100.671Z" fill="#FF66D0"/>
<path d="M288.907 96.1175C289.006 95.3462 288.665 94.6661 288.145 94.5986C287.625 94.5311 287.124 95.1016 287.025 95.8729C286.926 96.6443 287.267 97.3243 287.786 97.3918C288.306 97.4593 288.808 96.8888 288.907 96.1175Z" fill="#FF66D0"/>
<path d="M284.99 93.9226C285.089 93.1513 284.748 92.4713 284.228 92.4038C283.708 92.3363 283.207 92.9068 283.108 93.6781C283.009 94.4494 283.35 95.1294 283.869 95.197C284.389 95.2645 284.891 94.694 284.99 93.9226Z" fill="#FF66D0"/>
<path d="M280.595 92.7923C280.694 92.021 280.353 91.341 279.833 91.2734C279.313 91.2059 278.812 91.7764 278.713 92.5478C278.613 93.3191 278.955 93.9991 279.474 94.0666C279.994 94.1341 280.496 93.5636 280.595 92.7923Z" fill="#FF66D0"/>
<path d="M284.068 87.5242C284.167 86.7529 283.826 86.0729 283.307 86.0054C282.787 85.9379 282.285 86.5084 282.186 87.2797C282.087 88.051 282.428 88.731 282.948 88.7985C283.468 88.8661 283.969 88.2955 284.068 87.5242Z" fill="#FF66D0"/>
<path d="M287.888 89.2718C287.987 88.5005 287.646 87.8204 287.126 87.7529C286.607 87.6854 286.105 88.2559 286.006 89.0272C285.907 89.7986 286.248 90.4786 286.768 90.5461C287.287 90.6136 287.789 90.0431 287.888 89.2718Z" fill="#FF66D0"/>
<path d="M287 68.5C292.5 68.5 311.5 73.4999 306 98.9991C302.252 121.824 284.5 118.999 284.5 118.999" stroke="#FF66D0" stroke-miterlimit="10"/>
<path d="M302.5 76C302.5 76 300.51 46.2772 311.528 18.9728C330.664 -28.4508 354.547 5.75034 357.993 -15.4332C357.993 -15.4332 381.377 -38.1214 381.377 89.1744C381.377 142.428 427.233 213.021 365 219C311.97 216.879 318 179.681 328.5 179.681C342.38 176.516 351.493 229.416 305.163 219C290.86 215.784 277.712 211.655 265.5 207.126M-73 303.5C-103.5 489 154 303.5 154 303.5C154 303.5 50.0079 204.868 126 173C157 160 183.273 170.541 219 187.103M112 289C93.3181 344.443 114.327 332.006 175.5 314.5C143.5 242 127 170.5 216.544 246.42C314.638 309.011 231.148 361.097 181.575 260.312C137.94 155.983 46.2468 177.923 35.2617 257" stroke="#FF66D0" stroke-miterlimit="10"/>
</svg>
