<svg width="41" height="23" viewBox="0 0 41 23" fill="none" xmlns="http://www.w3.org/2000/svg">
  <path d="M36.3803 15.4809C36.0135 15.1516 35.6466 14.8222 35.2854 14.4876C34.0592 13.3532 33.9811 12.6955 34.9687 11.3892C35.5412 10.6279 36.1374 9.8824 36.7335 9.13682C37.2563 8.48302 37.7792 7.82914 38.2863 7.1644L38.3937 7.02355C39.3716 5.74149 40.3537 4.45373 40.868 2.91864C41.2068 1.90583 40.9068 1.45908 39.8119 1.28152C39.6222 1.25042 39.4278 1.24872 39.2363 1.24872L32.7394 1.24137C31.9391 1.23006 31.4977 1.56088 31.2139 2.23325C30.8322 3.14258 30.4392 4.0502 29.9835 4.92729C28.9512 6.91615 27.7984 8.83771 26.1805 10.4658C26.1576 10.4887 26.1346 10.512 26.1115 10.5355L26.1112 10.5358L26.1112 10.5358C25.7724 10.8794 25.3919 11.2653 24.8338 11.0907C24.0895 10.8334 23.8689 9.66843 23.8814 9.27541L23.8754 2.16596C23.7311 1.15033 23.4926 0.697926 22.4292 0.5L15.6824 0.501129C14.7813 0.501129 14.3304 0.831383 13.8491 1.36521C13.5718 1.67398 13.4883 1.87416 14.0585 1.97651C15.1779 2.17783 15.8094 2.86548 15.9764 3.93031C16.2448 5.6319 16.2263 7.33971 16.0712 9.04808C16.0259 9.54685 15.9359 10.0445 15.7271 10.5099C15.4009 11.2422 14.8737 11.3909 14.1819 10.9408C13.5551 10.5331 13.115 9.9574 12.6838 9.38003C11.0658 7.21191 9.77468 4.87413 8.72148 2.41704C8.41673 1.70734 7.89192 1.27699 7.09874 1.26512C5.14977 1.23571 3.20081 1.23119 1.25185 1.26682C0.0787716 1.28774 -0.270707 1.82722 0.206991 2.83551C2.3295 7.31256 4.69176 11.6646 7.77622 15.6299C9.3602 17.664 11.178 19.4606 13.5265 20.7335C16.1887 22.1767 19.0531 22.611 22.072 22.477C23.4848 22.4142 23.9094 22.0653 23.9744 20.7301C24.0198 19.8169 24.1283 18.9075 24.6036 18.087C25.07 17.2806 25.7773 17.1268 26.5914 17.629C26.9993 17.8795 27.3416 18.1978 27.6666 18.536C27.9299 18.8086 28.1899 19.0842 28.4499 19.3598L28.4501 19.36C28.976 19.9173 29.5019 20.4747 30.0545 21.0078C31.0892 22.0076 32.3166 22.5974 33.8588 22.4764L39.8303 22.4775C40.7917 22.417 41.2915 21.3002 40.738 20.2817C40.3504 19.5675 39.8411 18.9324 39.3008 18.3183C38.4055 17.2992 37.393 16.3901 36.3804 15.481L36.3803 15.4809Z" fill="#F362C7"/>
</svg>