<svg width="41" height="55" viewBox="0 0 41 55" fill="none" xmlns="http://www.w3.org/2000/svg">
  <g filter="url(#filter0_d_47_526)">
    <path d="M34.9998 20.5761C34.9998 26.3508 27.5417 41.5755 23.3235 47.5384C23.0026 47.9905 22.5789 48.3589 22.0878 48.6131C21.5967 48.8674 21.0522 49 20.4998 49C19.9473 49 19.4029 48.8674 18.9118 48.6131C18.4206 48.3589 17.997 47.9905 17.6761 47.5384C13.4579 41.5755 5.99976 26.3508 5.99976 20.5761C5.99976 16.7103 7.52742 13.0028 10.2467 10.2692C12.966 7.53569 16.6541 6 20.4998 6C24.3454 6 28.0335 7.53569 30.7528 10.2692C33.4721 13.0028 34.9998 16.7103 34.9998 20.5761Z" fill="#141114"/>
    <path d="M20.2847 21.2945C22.3576 21.2945 24.038 19.6052 24.038 17.5214C24.038 15.4376 22.3576 13.7484 20.2847 13.7484C18.2118 13.7484 16.5313 15.4376 16.5313 17.5214C16.5313 19.6052 18.2118 21.2945 20.2847 21.2945Z" fill="#141114"/>
    <path d="M20.3818 23.7773C16.6077 23.7773 13.5411 27.1249 13.5411 31.2467H27.2225C27.2225 27.1249 24.1768 23.7773 20.3818 23.7773Z" fill="#141114"/>
    <path d="M34.9998 20.5761C34.9998 26.3508 27.5417 41.5755 23.3235 47.5384C23.0026 47.9905 22.5789 48.3589 22.0878 48.6131C21.5967 48.8674 21.0522 49 20.4998 49C19.9473 49 19.4029 48.8674 18.9118 48.6131C18.4206 48.3589 17.997 47.9905 17.6761 47.5384C13.4579 41.5755 5.99976 26.3508 5.99976 20.5761C5.99976 16.7103 7.52742 13.0028 10.2467 10.2692C12.966 7.53569 16.6541 6 20.4998 6C24.3454 6 28.0335 7.53569 30.7528 10.2692C33.4721 13.0028 34.9998 16.7103 34.9998 20.5761Z" stroke="#EADAFF" stroke-linecap="round" stroke-linejoin="round"/>
    <path d="M20.2847 21.2945C22.3576 21.2945 24.038 19.6052 24.038 17.5214C24.038 15.4376 22.3576 13.7484 20.2847 13.7484C18.2118 13.7484 16.5313 15.4376 16.5313 17.5214C16.5313 19.6052 18.2118 21.2945 20.2847 21.2945Z" stroke="#EADAFF" stroke-linecap="round" stroke-linejoin="round"/>
    <path d="M20.3818 23.7773C16.6077 23.7773 13.5411 27.1249 13.5411 31.2467H27.2225C27.2225 27.1249 24.1768 23.7773 20.3818 23.7773Z" stroke="#EADAFF" stroke-linecap="round" stroke-linejoin="round"/>
  </g>
  <defs>
    <filter id="filter0_d_47_526" x="0.499756" y="0.5" width="40" height="54" filterUnits="userSpaceOnUse" color-interpolation-filters="sRGB">
      <feFlood flood-opacity="0" result="BackgroundImageFix"/>
      <feColorMatrix in="SourceAlpha" type="matrix" values="0 0 0 0 0 0 0 0 0 0 0 0 0 0 0 0 0 0 127 0" result="hardAlpha"/>
      <feOffset/>
      <feGaussianBlur stdDeviation="2.5"/>
      <feComposite in2="hardAlpha" operator="out"/>
      <feColorMatrix type="matrix" values="0 0 0 0 1 0 0 0 0 0.85 0 0 0 0 0.963014 0 0 0 0.5 0"/>
      <feBlend mode="normal" in2="BackgroundImageFix" result="effect1_dropShadow_47_526"/>
      <feBlend mode="normal" in="SourceGraphic" in2="effect1_dropShadow_47_526" result="shape"/>
    </filter>
  </defs>
</svg>