<svg width="35" height="35" viewBox="0 0 35 35" fill="none" xmlns="http://www.w3.org/2000/svg">
  <path d="M14.485 13.5846C14.4347 11.518 13.1359 9.44339 12.0688 9.53951C10.472 9.68369 9.13699 12.0327 9.48534 14.0933C9.51756 14.2815 9.55985 14.4717 9.62629 14.65C11.7244 20.1669 15.5784 23.7895 21.3352 25.3294C22.2373 25.5697 23.1293 25.3635 23.9388 24.9029C25.1147 24.232 26.1738 23.395 25.5698 21.8711C25.0704 20.6135 22.2051 19.8705 21.2547 20.7737C19.9358 22.0253 18.7699 21.7409 17.4651 20.8618C16.3919 20.1369 15.4375 19.2898 14.6038 18.3146C13.6051 17.1471 12.7373 15.9536 14.1709 14.4757C14.343 14.2973 14.399 14.0068 14.4411 13.7889C14.4566 13.7085 14.4702 13.6379 14.4871 13.5866L14.485 13.5846Z" fill="#F362C7"/>
  <path fill-rule="evenodd" clip-rule="evenodd" d="M17.6155 1C5.51391 1.00601 -2.43366 13.2054 2.55195 24.2013C3.19629 25.6231 3.11373 26.8887 2.64457 28.2564C2.12507 29.7643 1.62167 31.2762 1.12634 32.7941C0.755839 33.9295 1.21896 34.2039 2.27005 33.8635C2.74293 33.7102 3.21933 33.5659 3.69569 33.4217C4.57023 33.1568 5.44468 32.892 6.29719 32.5718C8.16981 31.8689 9.89343 31.7688 11.8365 32.6359C14.5045 33.8274 17.3698 34.0096 20.3116 33.469C28.8915 31.893 34.7026 24.3134 33.9314 15.5564C33.2126 7.39206 26.0443 0.997998 17.6135 1.002L17.6155 1ZM17.5175 3.21153C24.859 3.20352 31.0567 8.77855 31.6729 15.9436C32.3152 23.417 27.1786 30.0294 19.9016 31.301C16.7181 31.8577 13.7461 31.4091 10.9834 29.8932C9.79852 29.2431 8.8149 29.5753 7.81945 29.9115C7.47177 30.029 7.12264 30.1469 6.76299 30.2236C6.55732 30.2675 6.34545 30.3601 6.1327 30.4531C5.6081 30.6824 5.07813 30.914 4.62257 30.4239C4.18247 29.95 4.48055 29.3395 4.74496 28.7981C4.80235 28.6806 4.85814 28.5663 4.90447 28.4574C5.64747 26.7232 5.58103 25.2493 4.69505 23.423C0.162504 14.0973 7.14356 3.22154 17.5175 3.20953V3.21153Z" fill="#F362C7"/>
  <path d="M14.485 13.5846C14.4347 11.518 13.1359 9.44339 12.0688 9.53951C10.472 9.68369 9.13699 12.0327 9.48534 14.0933C9.51756 14.2815 9.55985 14.4717 9.62629 14.65C11.7244 20.1669 15.5784 23.7895 21.3352 25.3294C22.2373 25.5697 23.1293 25.3635 23.9388 24.9029C25.1147 24.232 26.1738 23.395 25.5698 21.8711C25.0704 20.6135 22.2051 19.8705 21.2547 20.7737C19.9358 22.0253 18.7699 21.7409 17.4651 20.8618C16.3919 20.1369 15.4375 19.2898 14.6038 18.3146C13.6051 17.1471 12.7373 15.9536 14.1709 14.4757C14.343 14.2973 14.399 14.0068 14.4411 13.7889C14.4566 13.7085 14.4702 13.6379 14.4871 13.5866L14.485 13.5846Z" stroke="#F362C7"/>
  <path fill-rule="evenodd" clip-rule="evenodd" d="M17.6155 1C5.51391 1.00601 -2.43366 13.2054 2.55195 24.2013C3.19629 25.6231 3.11373 26.8887 2.64457 28.2564C2.12507 29.7643 1.62167 31.2762 1.12634 32.7941C0.755839 33.9295 1.21896 34.2039 2.27005 33.8635C2.74293 33.7102 3.21933 33.5659 3.69569 33.4217C4.57023 33.1568 5.44468 32.892 6.29719 32.5718C8.16981 31.8689 9.89343 31.7688 11.8365 32.6359C14.5045 33.8274 17.3698 34.0096 20.3116 33.469C28.8915 31.893 34.7026 24.3134 33.9314 15.5564C33.2126 7.39206 26.0443 0.997998 17.6135 1.002L17.6155 1ZM17.5175 3.21153C24.859 3.20352 31.0567 8.77855 31.6729 15.9436C32.3152 23.417 27.1786 30.0294 19.9016 31.301C16.7181 31.8577 13.7461 31.4091 10.9834 29.8932C9.79852 29.2431 8.8149 29.5753 7.81945 29.9115C7.47177 30.029 7.12264 30.1469 6.76299 30.2236C6.55732 30.2675 6.34545 30.3601 6.1327 30.4531C5.6081 30.6824 5.07813 30.914 4.62257 30.4239C4.18247 29.95 4.48055 29.3395 4.74496 28.7981C4.80235 28.6806 4.85814 28.5663 4.90447 28.4574C5.64747 26.7232 5.58103 25.2493 4.69505 23.423C0.162504 14.0973 7.14356 3.22154 17.5175 3.20953V3.21153Z" stroke="#F362C7"/>
</svg>