<svg width="33" height="31" viewBox="0 0 33 31" fill="none" xmlns="http://www.w3.org/2000/svg">
  <path d="M33 1.56313L27.7808 29.2511C27.7808 29.2511 27.0509 31.1714 25.0435 30.2497L17.6172 24.259L12.8534 28.829C12.8534 28.829 12.4811 29.1266 12.0736 28.9402L13.0093 20.5419L13.0359 20.3033C13.0359 20.3033 26.394 7.66913 26.9414 7.1313C27.4889 6.59372 27.3065 6.47866 27.3065 6.47866C27.343 5.82577 26.3209 6.47866 26.3209 6.47866L8.61965 18.3066L1.24715 15.695C1.24715 15.695 0.115723 15.2727 0.00614272 14.3511C-0.10321 13.4294 1.28367 12.9302 1.28367 12.9302L30.5911 0.833382C30.5911 0.833382 33 -0.28022 33 1.56313Z" fill="#F362C7"/>
</svg>