<svg
          
          width="17"
          height="20"
          viewBox="0 0 17 20"
          fill="none"
          xmlns="http://www.w3.org/2000/svg"
        >
          <path
            d="M2.74013 2.03227C2.07777 2.03227 1.53242 2.5729 1.53242 3.28872H0.000747886C0.000747886 1.77045 1.18873 0.5 2.74013 0.5C4.30462 0.5 5.45349 1.78406 5.45349 3.28872H3.92182C3.92182 2.55929 3.38941 2.03227 2.74013 2.03227Z"
            fill="url(#paint0_linear_137_32)"
          />
          <path
            d="M3.92108 16.7571C3.89838 17.45 3.36226 17.9677 2.71411 17.9677C2.06483 17.9677 1.53242 17.4407 1.53242 16.7113H1.53167V10.0413L5.21306 6.55923C5.36606 6.41452 5.45274 6.21318 5.45274 6.00254L5.45274 3.28877L3.92107 3.28877L3.92108 5.67255L0.239684 9.15466C0.0866888 9.29938 0 9.50072 0 9.71136V16.7672H0.00127698C0.0293138 18.2476 1.16903 19.5 2.71411 19.5C4.26551 19.5 5.45349 18.2295 5.45349 16.7113H5.45274V10.0402L13.3983 2.48734L13.4005 2.48966C13.9136 1.99078 14.6813 2.00522 15.1429 2.4804C15.5622 2.91197 15.5844 3.59829 15.1587 4.10374L6.59758 12.2014C6.44443 12.3463 6.35773 12.5479 6.3579 12.7587C6.35807 12.9696 6.4451 13.171 6.59849 13.3156L12.2119 18.6079L12.2073 18.6126C12.2791 18.6844 12.354 18.752 12.4316 18.815L12.482 18.8625L12.4861 18.8582C13.5509 19.6824 15.0852 19.6902 16.1013 18.6737C17.15 17.6246 17.1403 15.9895 16.1995 14.9104L12.0032 10.9179L10.9509 12.0313L14.9848 15.8468L14.9819 15.8497C15.4887 16.3568 15.4845 17.1238 15.0183 17.5902C14.6057 18.003 13.9451 18.0444 13.438 17.6583L8.2394 12.7572L16.1206 5.3026L16.1269 5.30908C17.2023 4.26354 17.3346 2.53792 16.2413 1.41249C15.1931 0.333544 13.5271 0.331728 12.4346 1.29666L12.4311 1.29297L4.15938 9.15597C4.00722 9.30061 3.92108 9.50138 3.92108 9.71136V16.7571Z"
            fill="url(#paint1_linear_137_32)"
          />
          <path
            d="M1.53242 5.67255V3.28872H0.000747886V7.11939L1.53242 5.67255Z"
            fill="url(#paint2_linear_137_32)"
          />
          <defs>
            <linearGradient
              id="paint0_linear_137_32"
              x1="-2.53574"
              y1="12.9588"
              x2="19.6353"
              y2="12.7601"
              gradientUnits="userSpaceOnUse"
            >
              <stop stop-color="#FFF1FA" />
              <stop offset="0.0001" stop-color="#FF66D0" />
              <stop offset="0.452486" stop-color="#9F9DFF" />
              <stop offset="1" stop-color="#A35AFF" />
            </linearGradient>
            <linearGradient
              id="paint1_linear_137_32"
              x1="-2.53574"
              y1="12.9588"
              x2="19.6353"
              y2="12.7601"
              gradientUnits="userSpaceOnUse"
            >
              <stop stop-color="#FFF1FA" />
              <stop offset="0.0001" stop-color="#FF66D0" />
              <stop offset="0.452486" stop-color="#9F9DFF" />
              <stop offset="1" stop-color="#A35AFF" />
            </linearGradient>
            <linearGradient
              id="paint2_linear_137_32"
              x1="-2.53574"
              y1="12.9588"
              x2="19.6353"
              y2="12.7601"
              gradientUnits="userSpaceOnUse"
            >
              <stop stop-color="#FFF1FA" />
              <stop offset="0.0001" stop-color="#FF66D0" />
              <stop offset="0.452486" stop-color="#9F9DFF" />
              <stop offset="1" stop-color="#A35AFF" />
            </linearGradient>
          </defs>
        </svg>