<svg width="178" height="116" viewBox="0 0 178 116" fill="none" xmlns="http://www.w3.org/2000/svg">
  <path d="M91.6758 17.8731C98.3344 17.2406 104.553 17.1708 109.86 17.3761H109.864" stroke="#FF66D0" stroke-miterlimit="10"/>
  <path d="M51.1406 30.3002C55.477 27.6636 60.0311 25.5321 64.6716 23.8154" stroke="#FF66D0" stroke-miterlimit="10"/>
  <path d="M44.0678 35.2368L44.0586 35.246" stroke="#FF66D0" stroke-miterlimit="10"/>
  <path d="M147.72 29.6309H147.724C149.339 30.8465 150.901 32.1278 152.414 33.4913C153.289 34.2757 154.148 35.0848 154.987 35.9185" stroke="#FF66D0" stroke-miterlimit="10"/>
  <path d="M175.599 74.8353C178.037 88.3921 176.257 102.524 168.764 114.964C168.485 115.424 147.909 157.33 89.4113 157.384C63.9976 157.404 18.6244 140.389 18.6367 96.3307C18.6367 84.9752 20.1411 75.2131 22.7881 66.8228" stroke="#FF66D0" stroke-miterlimit="10"/>
  <path d="M19.7554 107.039C18.9312 101.073 17.8589 99.8623 15.0028 99.599C5.61214 98.733 6.46527 111.654 13.1032 108.315C17.3985 106.155 13.2041 97.9258 8.35186 104.848C5.77207 108.529 3.23577 105.961 1.25882 103.334" stroke="#FF66D0"/>
  <path d="M140.933 25.1835C139.61 24.4278 138.257 23.7296 136.885 23.0848C134.287 21.8528 131.607 20.822 128.861 20.0088" stroke="#FF66D0" stroke-miterlimit="10"/>
  <path d="M150.095 37.1339C150.095 37.1339 137.37 44.2593 143.733 62.6705C150.095 81.0816 164.465 81.7387 166.878 81.4102C169.29 81.0816 177.86 77.5744 177.359 66.3954C176.857 55.2165 172.69 45.2409 165.451 39.2161C158.213 33.1872 150.095 37.1339 150.095 37.1339Z" stroke="#FF66D0" stroke-miterlimit="10"/>
  <path d="M26.7583 69.0649C25.6033 72.7693 24.806 76.753 24.4854 81.0201L28.0161 83.5129C28.0161 83.5129 28.6902 78.137 31.1769 70.8473C31.6454 69.4838 32.1715 68.0546 32.7716 66.5803C37.4368 55.1262 46.3931 40.9944 63.1506 34.8135L58.7691 31.6143C58.7691 31.6143 57.1291 32.4438 54.5684 34.1153" stroke="#FF66D0" stroke-miterlimit="10"/>
  <path d="M31.58 70.9708C15.0016 66.586 4.19552 42.0727 18.9203 29.7706H18.9245C25.8831 23.9388 37.063 22.8997 43.7587 25.5651C46.755 26.7602 49.2089 28.5098 51.1407 30.3004C52.5629 31.6187 53.7055 32.9616 54.5687 34.1156C55.9826 35.9966 56.669 37.3847 56.669 37.3847" stroke="#FF66D0" stroke-miterlimit="10"/>
  <path d="M18.9249 29.7666H18.9208C11.0971 44.2642 16.6953 62.5745 32.7724 66.5807C32.7806 66.5848 32.793 66.5848 32.8012 66.5889" stroke="#FF66D0" stroke-miterlimit="10"/>
  <path d="M38.646 54.8474C38.646 54.8474 37.4211 53.5619 35.6701 51.7385C34.5973 50.6255 33.3273 49.3113 32.0202 47.9683C28.4566 44.3091 24.6012 40.4363 23.6723 39.8162C21.8391 38.6005 28.4155 31.5449 28.4155 31.5449L44.4907 34.584L44.0674 35.237L44.0592 35.2452L40.8367 40.1817L39.1104 39.6273L29.8788 36.6539L36.8374 41.9846L41.1286 45.2742L44.1249 47.57" stroke="#FF66D0" stroke-miterlimit="10"/>
  <path d="M97.6277 37.9227C93.0612 45.4876 84.89 45.1795 74.9062 37.3066C60.6682 26.0825 61.7657 8.89934 61.7657 8.89934C61.7657 8.89934 80.2166 4.70211 96.8386 22.7724" stroke="#FF66D0" stroke-miterlimit="10"/>
  <path d="M109.811 17.4786C109.811 17.4786 117.526 2.10656 132.142 0.665039C132.142 0.665039 135.142 13.2198 128.566 20.337" stroke="#FF66D0" stroke-miterlimit="10"/>
  <path d="M120.711 25.2034C120.711 25.2034 117.25 29.4294 126.071 36.522C131.673 41.0232 135.874 38.5303 136.786 35.9142C137.814 32.9737 129.721 21.6838 120.711 25.2075V25.2034Z" stroke="#FF66D0" stroke-miterlimit="10"/>
  <path d="M123.054 32.8997C123.054 32.8997 121.957 28.5177 125.52 29.4335C129.084 30.3493 132.187 33.8196 130.633 36.0949C129.08 38.3701 124.591 35.2817 124.131 34.8299C123.671 34.3782 122.413 31.9099 124.238 31.7662C126.063 31.6225 126.996 33.795 125.335 34.0866" stroke="#FF66D0" stroke-miterlimit="10"/>
  <path d="M137.543 21.0106C137.543 21.0106 134.082 25.2366 142.903 32.3291C148.505 36.8303 152.706 34.3374 153.618 31.7213C154.646 28.7808 146.553 17.491 137.543 21.0147V21.0106Z" stroke="#FF66D0" stroke-miterlimit="10"/>
  <path d="M139.89 28.7068C139.89 28.7068 138.792 24.3248 142.356 25.2406C145.92 26.1565 149.023 29.6268 147.469 31.902C145.916 34.1772 141.427 31.0888 140.967 30.6371C140.506 30.1853 139.249 27.7171 141.074 27.5733C142.899 27.4296 143.832 29.6021 142.171 29.8937" stroke="#FF66D0" stroke-miterlimit="10"/>
  <path d="M172 88.4999C172 88.4999 165 100.5 141.501 88.4999C120.044 73.4831 114.001 57.4999 116.507 42.9907" stroke="#FF66D0" stroke-miterlimit="10"/>
  <path d="M110.822 49.0566C110.822 49.0566 115.163 38.6949 121.558 43.8039" stroke="#FF66D0" stroke-miterlimit="10"/>
</svg>