<svg width="22" height="24" viewBox="0 0 22 24" fill="none" xmlns="http://www.w3.org/2000/svg">
    <path fill-rule="evenodd" clip-rule="evenodd" d="M3.41997 1.93549C2.59328 1.93549 1.91262 2.6184 1.91262 3.5226H0.000933439C0.000933439 1.60478 1.48366 0 3.41997 0C5.37261 0 6.80653 1.62197 6.80653 3.5226H4.89484C4.89484 2.60121 4.23034 1.93549 3.41997 1.93549ZM4.89391 20.5353C4.86559 21.4106 4.19646 22.0645 3.38749 22.0645C2.57712 22.0645 1.91262 21.3988 1.91262 20.4774H1.91168V12.0221L6.54235 7.09277C6.71135 6.91288 6.80559 6.6741 6.80559 6.42583L6.80559 3.52266L4.89391 3.52266L4.89391 6.03911L0.26324 10.9685C0.0942438 11.1484 0 11.3871 0 11.6354V20.548H0.0015938C0.0365867 22.418 1.45907 24 3.38749 24C5.3238 24 6.80653 22.3952 6.80653 20.4774H6.80559L6.80559 12.5181L16.7251 2.51312L16.7252 2.51326C17.3657 1.88308 18.3238 1.90133 18.8999 2.50156C19.4264 3.04998 19.4512 3.92407 18.9099 4.56359L9.28584 14.1354C8.91381 14.5054 8.90338 15.109 9.2624 15.492L16.1493 22.8381L16.1469 22.8404C16.1674 22.8611 16.1881 22.8816 16.2089 22.9017L16.2666 22.9633L16.2703 22.9597C17.6001 24.1864 19.6655 24.276 21.0071 22.9176C22.3757 21.532 22.3 19.337 20.9617 17.9819L20.9547 17.989L16.4453 13.4072L15.0912 14.7734L19.625 19.3799L19.6318 19.3731C20.2423 20.0135 20.2305 20.9667 19.6553 21.549C19.1057 22.1055 18.2034 22.1276 17.5579 21.5292L11.2958 14.8495L20.1234 6.06982L20.128 6.07463C20.186 6.01764 20.2417 5.95906 20.2952 5.89901L20.3037 5.89051L20.3032 5.88997C21.4821 4.55798 21.5736 2.5098 20.2709 1.15262C18.9572 -0.215868 16.8661 -0.212549 15.5029 1.02141L15.4992 1.01759L5.17515 11.4306C4.99511 11.6122 4.89391 11.8589 4.89391 12.1162L4.89391 20.5353ZM1.91262 6.07463V3.5226H0.000933439V8.20748L1.91262 6.07463Z" fill="url(#paint0_linear_509_159)"/>
    <defs>
        <linearGradient id="paint0_linear_509_159" x1="-3.28154" y1="15.7374" x2="25.4103" y2="15.474" gradientUnits="userSpaceOnUse">
            <stop stop-color="#FFF1FA"/>
            <stop offset="0.0001" stop-color="#FF66D0"/>
            <stop offset="0.452486" stop-color="#9F9DFF"/>
            <stop offset="1" stop-color="white"/>
        </linearGradient>
    </defs>
</svg>