<svg width="33" height="29" viewBox="0 0 33 29" fill="none" xmlns="http://www.w3.org/2000/svg">
  <path d="M27.0971 27.3344L32 1.49226C32 -0.228205 29.737 0.811157 29.737 0.811157L2.20587 12.1016C2.20587 12.1016 0.903045 12.5674 1.00577 13.4277C1.10871 14.2879 2.17156 14.682 2.17156 14.682L9.09725 17.1195L25.7257 6.08008C25.7257 6.08008 26.6859 5.47072 26.6516 6.08008C26.6516 6.08008 26.8229 6.18747 26.3086 6.68922C25.7944 7.19119 13.2458 18.9831 13.2458 18.9831L24.5257 28.2664C26.4115 29.1266 27.0971 27.3344 27.0971 27.3344Z" fill="#141114"/>
  <path d="M13.2458 18.9831L24.5257 28.2664C26.4115 29.1266 27.0971 27.3344 27.0971 27.3344L32 1.49226C32 -0.228205 29.737 0.811157 29.737 0.811157L2.20587 12.1016C2.20587 12.1016 0.903045 12.5674 1.00577 13.4277C1.10871 14.2879 2.17156 14.682 2.17156 14.682L9.09725 17.1195C15.5911 12.8083 19.2319 10.3912 25.7257 6.08008C25.7257 6.08008 26.6859 5.47072 26.6516 6.08008C26.6516 6.08008 26.8229 6.18747 26.3086 6.68922C25.7944 7.19119 13.2458 18.9831 13.2458 18.9831ZM13.2458 18.9831L12.2727 26.6333C12.2727 27.5667 13.0744 26.9404 13.0744 26.9404L17.9091 22.9633" stroke="url(#paint0_linear_494_445)" stroke-linecap="round" stroke-linejoin="round"/>
  <defs>
    <linearGradient id="paint0_linear_494_445" x1="50.2737" y1="46.2838" x2="-6.2471" y2="43.267" gradientUnits="userSpaceOnUse">
      <stop offset="0.187865" stop-color="#B8EAFF"/>
      <stop offset="0.324501" stop-color="#EBC2E2"/>
      <stop offset="0.425557" stop-color="#FFA5F6"/>
      <stop offset="0.973094" stop-color="#A35AFF"/>
    </linearGradient>
  </defs>
</svg>