<svg width="41" height="55" viewBox="0 0 41 55" fill="none" xmlns="http://www.w3.org/2000/svg">
  <g filter="url(#filter0_d_47_525)">
    <path d="M34.9998 20.5785C34.9998 26.3471 27.5416 41.5743 23.3234 47.5382C23.0025 47.9903 22.5789 48.3588 22.0878 48.6131C21.5966 48.8673 21.0522 49 20.4997 49C19.9473 49 19.4029 48.8673 18.9118 48.6131C18.4206 48.3588 17.997 47.9903 17.6761 47.5382C13.4579 41.5743 5.99976 26.3471 5.99976 20.5785C5.99976 16.712 7.52744 13.0039 10.2467 10.2699C12.966 7.53594 16.6541 6 20.4997 6C24.3454 6 28.0335 7.53594 30.7528 10.2699C33.4721 13.0039 34.9998 16.712 34.9998 20.5785Z" fill="#141114"/>
    <path d="M26.6328 42.2509C24.489 40.1095 22.6574 35.415 22.2411 32.8969C22.1988 32.6499 22.0713 32.4258 21.881 32.2638C21.6907 32.1018 21.4498 32.0123 21.2005 32.0111C20.0455 32.0213 18.9098 31.7142 17.9157 31.1229C16.9217 30.5316 16.1072 29.6786 15.56 28.6559C15.56 28.6559 14.4084 27.1144 15.345 22.9013C15.8031 21.2739 15.6424 19.5333 14.894 18.0185C14.7978 17.8487 14.7488 17.6559 14.7523 17.4604C14.7557 17.265 14.8115 17.074 14.9137 16.9077C15.0159 16.7415 15.1608 16.6059 15.3332 16.5154C15.5055 16.4249 15.6989 16.3827 15.8931 16.3933H15.9624C18.0923 16.5746 23.594 16.3933 26.2582 21.0528C28.166 24.4289 27.5 26.94 26.9519 28.084C26.8562 28.2906 26.8288 28.5226 26.8738 28.746C26.9187 28.9695 27.0336 29.1726 27.2017 29.3256C28.4901 30.5163 29.7043 31.7859 30.8371 33.1271" fill="#141114"/>
    <path d="M18.0368 23.5709C18.0368 23.5709 17.0933 27.3167 20.4997 28.8303L18.0368 23.5709Z" fill="#141114"/>
    <path d="M23.1014 35.6871C23.6501 34.5725 24.4201 33.5828 25.364 32.779C26.3078 31.9752 27.4055 31.3744 28.5892 31.0136" fill="#141114"/>
    <path d="M26.6328 42.2509C24.489 40.1094 22.6574 35.415 22.2411 32.8969C22.1988 32.6499 22.0713 32.4258 21.881 32.2638C21.6907 32.1018 21.4498 32.0123 21.2005 32.0111C20.0455 32.0213 18.9098 31.7142 17.9157 31.1229C16.9217 30.5316 16.1072 29.6786 15.56 28.6559C15.56 28.6559 14.4084 27.1144 15.345 22.9013C15.8031 21.2739 15.6424 19.5333 14.894 18.0185C14.7978 17.8487 14.7488 17.6559 14.7523 17.4604C14.7557 17.265 14.8115 17.074 14.9137 16.9077C15.0159 16.7415 15.1608 16.6059 15.3332 16.5154C15.5055 16.4249 15.6989 16.3827 15.8931 16.3933H15.9624C18.0923 16.5746 23.594 16.3933 26.2581 21.0528C28.166 24.4289 27.5 26.94 26.9519 28.084C26.8562 28.2906 26.8288 28.5226 26.8738 28.746C26.9187 28.9695 27.0336 29.1726 27.2017 29.3256C28.4901 30.5163 29.7043 31.7859 30.8371 33.1271M18.0368 23.5709C18.0368 23.5709 17.0933 27.3167 20.4997 28.8303M23.1014 35.6871C23.6501 34.5725 24.4201 33.5828 25.364 32.779C26.3078 31.9752 27.4055 31.3744 28.5892 31.0136M34.9998 20.5785C34.9998 26.3471 27.5416 41.5743 23.3234 47.5382C23.0025 47.9903 22.5789 48.3588 22.0878 48.6131C21.5966 48.8673 21.0522 49 20.4997 49C19.9473 49 19.4029 48.8673 18.9118 48.6131C18.4206 48.3588 17.997 47.9903 17.6761 47.5382C13.4579 41.5743 5.99976 26.3471 5.99976 20.5785C5.99976 16.712 7.52744 13.0039 10.2467 10.2699C12.966 7.53594 16.6541 6 20.4997 6C24.3454 6 28.0335 7.53594 30.7528 10.2699C33.4721 13.0039 34.9998 16.712 34.9998 20.5785Z" stroke="#D8B9FF" stroke-linecap="round" stroke-linejoin="round"/>
  </g>
  <defs>
    <filter id="filter0_d_47_525" x="0.499756" y="0.5" width="40" height="54" filterUnits="userSpaceOnUse" color-interpolation-filters="sRGB">
      <feFlood flood-opacity="0" result="BackgroundImageFix"/>
      <feColorMatrix in="SourceAlpha" type="matrix" values="0 0 0 0 0 0 0 0 0 0 0 0 0 0 0 0 0 0 127 0" result="hardAlpha"/>
      <feOffset/>
      <feGaussianBlur stdDeviation="2.5"/>
      <feComposite in2="hardAlpha" operator="out"/>
      <feColorMatrix type="matrix" values="0 0 0 0 0.301961 0 0 0 0 0.14902 0 0 0 0 0.505882 0 0 0 1 0"/>
      <feBlend mode="normal" in2="BackgroundImageFix" result="effect1_dropShadow_47_525"/>
      <feBlend mode="normal" in="SourceGraphic" in2="effect1_dropShadow_47_525" result="shape"/>
    </filter>
  </defs>
</svg>