<svg width="41" height="55" viewBox="0 0 41 55" fill="none" xmlns="http://www.w3.org/2000/svg">
  <g filter="url(#filter0_d_47_524)">
    <path d="M34.9965 20.786C34.9965 26.5115 27.5453 41.6249 23.3272 47.5443C23.0065 47.9944 22.5825 48.3614 22.0907 48.6146C21.5989 48.8679 21.0535 49 20.5 49C19.9466 49 19.4012 48.8679 18.9093 48.6146C18.4175 48.3614 17.9935 47.9944 17.6729 47.5443C13.4547 41.6249 6.00347 26.5115 6.00347 20.786C5.96124 18.8597 6.30498 16.9443 7.01452 15.1523C7.72406 13.3603 8.78512 11.7278 10.1354 10.3505C11.4857 8.97327 13.0981 7.87899 14.8779 7.13191C16.6577 6.38483 18.5692 6 20.5 6C22.4309 6 24.3423 6.38483 26.1221 7.13191C27.9019 7.87899 29.5143 8.97327 30.8646 10.3505C32.2149 11.7278 33.2759 13.3603 33.9855 15.1523C34.695 16.9443 35.0388 18.8597 34.9965 20.786Z" fill="#141114"/>
    <path d="M6.85683 16.8121H26.2341C26.6549 16.8139 27.0579 16.9815 27.3555 17.2785C27.653 17.5754 27.821 17.9776 27.8229 18.3975V30.437C27.821 30.8563 27.6528 31.2577 27.3551 31.5536C27.0573 31.8494 26.6543 32.0155 26.2341 32.0155H9.32668" fill="#141114"/>
    <path d="M20.1705 29.0316C22.7262 29.0316 24.798 26.9641 24.798 24.4138C24.798 21.8634 22.7262 19.796 20.1705 19.796C17.6148 19.796 15.543 21.8634 15.543 24.4138C15.543 26.9641 17.6148 29.0316 20.1705 29.0316Z" fill="#141114"/>
    <path d="M9.79845 20.2391C10.6491 20.2391 11.3386 20.174 11.3386 20.0937C11.3386 20.0134 10.6491 19.9483 9.79845 19.9483C8.94783 19.9483 8.25826 20.0134 8.25826 20.0937C8.25826 20.174 8.94783 20.2391 9.79845 20.2391Z" fill="#141114"/>
    <path d="M9.79845 23.7145C10.2238 23.7145 10.5685 23.6804 10.5685 23.6384C10.5685 23.5963 10.2238 23.5622 9.79845 23.5622C9.37314 23.5622 9.02836 23.5963 9.02836 23.6384C9.02836 23.6804 9.37314 23.7145 9.79845 23.7145Z" fill="#141114"/>
    <path d="M6.85683 16.8121H26.2341C26.6549 16.8139 27.0579 16.9815 27.3555 17.2785C27.653 17.5754 27.821 17.9776 27.8229 18.3975V30.437C27.821 30.8563 27.6528 31.2577 27.3551 31.5536C27.0573 31.8494 26.6543 32.0155 26.2341 32.0155H9.32668M34.9965 20.786C34.9965 26.5115 27.5453 41.6249 23.3272 47.5443C23.0065 47.9944 22.5825 48.3614 22.0907 48.6146C21.5989 48.8679 21.0535 49 20.5 49C19.9466 49 19.4012 48.8679 18.9093 48.6146C18.4175 48.3614 17.9935 47.9944 17.6729 47.5443C13.4547 41.6249 6.00347 26.5115 6.00347 20.786C5.96124 18.8597 6.30498 16.9443 7.01452 15.1523C7.72406 13.3603 8.78512 11.7278 10.1354 10.3505C11.4857 8.97327 13.0981 7.87899 14.8779 7.13191C16.6577 6.38483 18.5692 6 20.5 6C22.4309 6 24.3423 6.38483 26.1221 7.13191C27.9019 7.87899 29.5143 8.97327 30.8646 10.3505C32.2149 11.7278 33.2759 13.3603 33.9855 15.1523C34.695 16.9443 35.0388 18.8597 34.9965 20.786ZM24.798 24.4138C24.798 26.9641 22.7262 29.0316 20.1705 29.0316C17.6148 29.0316 15.543 26.9641 15.543 24.4138C15.543 21.8634 17.6148 19.796 20.1705 19.796C22.7262 19.796 24.798 21.8634 24.798 24.4138ZM11.3386 20.0937C11.3386 20.174 10.6491 20.2391 9.79845 20.2391C8.94783 20.2391 8.25826 20.174 8.25826 20.0937C8.25826 20.0134 8.94783 19.9483 9.79845 19.9483C10.6491 19.9483 11.3386 20.0134 11.3386 20.0937ZM10.5685 23.6384C10.5685 23.6804 10.2238 23.7145 9.79845 23.7145C9.37314 23.7145 9.02836 23.6804 9.02836 23.6384C9.02836 23.5963 9.37314 23.5622 9.79845 23.5622C10.2238 23.5622 10.5685 23.5963 10.5685 23.6384Z" stroke="#FFB3F1" stroke-linecap="round" stroke-linejoin="round"/>
  </g>
  <defs>
    <filter id="filter0_d_47_524" x="0.5" y="0.5" width="40" height="54" filterUnits="userSpaceOnUse" color-interpolation-filters="sRGB">
      <feFlood flood-opacity="0" result="BackgroundImageFix"/>
      <feColorMatrix in="SourceAlpha" type="matrix" values="0 0 0 0 0 0 0 0 0 0 0 0 0 0 0 0 0 0 127 0" result="hardAlpha"/>
      <feOffset/>
      <feGaussianBlur stdDeviation="2.5"/>
      <feComposite in2="hardAlpha" operator="out"/>
      <feColorMatrix type="matrix" values="0 0 0 0 0.721569 0 0 0 0 0.341176 0 0 0 0 0.654902 0 0 0 0.5 0"/>
      <feBlend mode="normal" in2="BackgroundImageFix" result="effect1_dropShadow_47_524"/>
      <feBlend mode="normal" in="SourceGraphic" in2="effect1_dropShadow_47_524" result="shape"/>
    </filter>
  </defs>
</svg>