<svg width="414" height="134" viewBox="0 0 414 134" fill="none" xmlns="http://www.w3.org/2000/svg">
  <path d="M179.248 48.5C179.248 50.023 179.248 70.7046 179.248 70.7046M90.9905 92.9497L90.9986 48.5659M136.995 91.425V62.9313M79.1018 117.388L71.3724 119.793C62.7728 122.487 53.4404 122.487 44.8408 119.793L34.6634 116.618M109.486 18.777V40.2546M6.78307 60.9552L6.79116 18.777M58.1348 121.806V34.8149M240.05 120.385L211.2 129.407C202.927 131.99 193.953 131.99 185.679 129.407L153.083 119.216M149.053 95.8212L149.061 83.395M239.872 87.9022L211.2 96.8648C202.928 99.4553 193.951 99.4553 185.679 96.8648L151.508 86.2C148.237 85.1786 148.237 81.8408 151.508 80.8195L186.236 68.1564C194.152 65.677 202.743 65.677 210.659 68.1564L239.872 78.8064M198.44 131.346V98.8187M34.6634 119.216C34.5893 119.447 34.4517 119.657 34.2636 119.826C34.0755 119.994 33.8432 120.115 33.5892 120.178L18.1225 125.011C14.3801 126.189 10.3155 126.189 6.57308 125.011L-8.88544 120.178C-9.14026 120.115 -9.37339 119.994 -9.56277 119.826C-9.75216 119.657 -9.89153 119.447 -9.9677 119.216M34.6957 67.853V119.216M-10 119.216L-9.99193 67.853M12.3478 125.891V74.8321M239.864 119.726C239.937 120.251 240.182 120.744 240.565 121.14C240.948 121.536 241.453 121.817 242.013 121.947L271.944 131.302C279.189 133.566 287.048 133.566 294.292 131.302L324.232 121.947C324.816 121.814 325.34 121.515 325.726 121.092C326.112 120.669 326.341 120.144 326.38 119.593V72.3602M239.856 120.037L239.864 72.2639M283.114 132.952V85.7781M357.362 37.3757V70.7097M306.714 63.6196V53.1989M393.933 115.36C393.809 115.75 393.577 116.104 393.26 116.388C392.943 116.672 392.552 116.876 392.124 116.981L366.279 125.07C360.018 127.024 353.228 127.024 346.968 125.07L326.397 118.639M393.981 83.6392V115.375M326.38 79.7611L347.379 72.1011C353.372 70.2284 359.874 70.2284 365.867 72.1011L384.006 78.7437M326.413 87.4433L346.984 93.8748C353.243 95.8332 360.035 95.8332 366.295 93.8748L392.14 85.7929C394.619 85.0158 394.619 82.4625 392.14 81.7224L384.006 78.7437M356.603 126.528V95.3106M153.027 120.03C152.904 120.414 152.675 120.764 152.363 121.044C152.05 121.324 151.664 121.525 151.242 121.628L125.647 129.629C119.45 131.568 112.727 131.568 106.53 129.629L80.9351 121.628C80.4206 121.51 79.9626 121.241 79.6314 120.861C79.3002 120.481 79.1141 120.013 79.1018 119.527M153.075 98.5448V120.037M79.0937 120.037L79.1017 98.5448M116.084 131.08V110.105M438.839 118.972L428.663 115.796M428.663 118.394C428.589 118.626 428.451 118.835 428.263 119.004C428.075 119.172 427.843 119.294 427.589 119.356L412.122 124.189C408.38 125.368 404.315 125.368 400.573 124.189L385.114 119.356M428.695 67.0314V118.394M384.008 67.0314L384.006 78.7437M406.347 125.07V74.0106M256.151 38C256.362 38.9376 257.181 39.8099 258.61 40.2546L293.654 51.2081C302.136 53.8651 311.34 53.8651 319.822 51.2081L354.858 40.2546C358.202 39.2111 358.202 35.7919 354.858 34.7409L319.249 21.7522C311.133 19.2147 302.327 19.2147 294.211 21.7522L258.61 34.7409C256.687 35.3567 255.867 36.7376 256.151 38ZM256.151 38V64.8495M256.151 64.8495L242.004 70.0141C239.137 70.9096 239.137 73.8256 242.004 74.7211L271.936 84.0833C279.181 86.3479 287.04 86.3479 294.284 84.0833L324.232 74.7211C327.091 73.8404 327.091 70.88 324.224 70.0141L293.808 58.9125C286.872 56.7432 279.348 56.7432 272.413 58.9125L256.151 64.8495ZM177 52C180.053 51.0453 180.093 47.1227 177 46.168L142 34.7409C134.625 32.4318 127.375 34.1909 120 36.5L93.3085 46.168C90.2555 47.1227 90.2555 50.2238 93.3085 51.1785L125.138 61.1254C132.843 63.5383 141.203 63.5383 148.908 61.1254L164.81 56.152L177 52ZM106.909 21.693L71.3724 32.7944C62.7715 35.4809 53.4417 35.4809 44.8408 32.7944L9.30296 21.693C5.90272 20.6346 5.90272 17.1636 9.30296 16.1052L45.4061 2.93148C53.6398 0.356173 62.5733 0.356173 70.807 2.93148L106.909 16.1126C110.334 17.1636 110.334 20.6346 106.909 21.693ZM33.5892 69.1185L18.1225 73.9514C14.3785 75.1209 10.3171 75.1209 6.57308 73.9514L-8.88544 69.1185C-9.19336 69.0643 -9.47105 68.9135 -9.67076 68.6919C-9.87047 68.4704 -9.97971 68.1921 -9.97971 67.9048C-9.97971 67.6174 -9.87047 67.3391 -9.67076 67.1176C-9.47105 66.8961 -9.19336 66.7453 -8.88544 66.691L6.82345 60.9552C10.4054 59.8376 14.2902 59.8376 17.8722 60.9552L33.5892 66.691C33.8971 66.7453 34.1748 66.8961 34.3745 67.1176C34.5743 67.3391 34.6835 67.6174 34.6835 67.9048C34.6835 68.1921 34.5743 68.4704 34.3745 68.6919C34.1748 68.9135 33.8971 69.0643 33.5892 69.1185ZM151.242 100.647L125.647 108.625C119.45 110.564 112.727 110.564 106.53 108.625L80.9351 100.625C78.5122 99.8844 78.5122 97.3681 80.9351 96.5984L106.909 87.1621C112.84 85.3119 119.272 85.3119 125.203 87.1621L151.209 96.6502C153.697 97.3903 153.697 99.8844 151.242 100.647ZM427.589 68.297L412.122 73.1298C408.378 74.2994 404.317 74.2994 400.573 73.1298L385.114 68.297C384.806 68.2428 384.528 68.0919 384.329 67.8704C384.129 67.6489 384.02 67.3706 384.02 67.0832C384.02 66.7959 384.129 66.5176 384.329 66.2961C384.528 66.0745 384.806 65.9237 385.114 65.8695L400.823 60.1337C404.405 59.016 408.29 59.016 411.872 60.1337L427.589 65.8695C427.897 65.9237 428.174 66.0745 428.374 66.2961C428.574 66.5176 428.683 66.7959 428.683 67.0832C428.683 67.3706 428.574 67.6489 428.374 67.8704C428.174 68.0919 427.897 68.2428 427.589 68.297Z" stroke="url(#paint0_linear_47_523)" stroke-linecap="round" stroke-linejoin="round"/>
  <defs>
    <linearGradient id="paint0_linear_47_523" x1="-12.4234" y1="85.0031" x2="394.015" y2="76.3466" gradientUnits="userSpaceOnUse">
      <stop stop-color="#FFF1FA"/>
      <stop offset="0.0001" stop-color="#FF66D0"/>
      <stop offset="0.452486" stop-color="#9F9DFF"/>
      <stop offset="1" stop-color="white"/>
    </linearGradient>
  </defs>
</svg>