<svg width="31" height="31" viewBox="0 0 31 31" fill="none" xmlns="http://www.w3.org/2000/svg">
  <path d="M12.4183 11.6237C12.367 9.50757 11.0426 7.38324 9.9544 7.48167C8.32617 7.6293 6.96488 10.0346 7.32009 12.1445C7.35294 12.3373 7.39606 12.5321 7.46382 12.7146C9.60329 18.3637 13.5332 22.0731 19.4034 23.6499C20.3233 23.896 21.2328 23.6848 22.0582 23.2132C23.2573 22.5263 24.3373 21.6692 23.7214 20.1087C23.2122 18.821 20.2904 18.0603 19.3213 18.985C17.9764 20.2666 16.7876 19.9754 15.4571 19.0753C14.3627 18.333 13.3895 17.4656 12.5394 16.467C11.521 15.2716 10.6361 14.0495 12.098 12.5362C12.2734 12.3535 12.3306 12.056 12.3735 11.8329C12.3893 11.7506 12.4032 11.6783 12.4203 11.6258L12.4183 11.6237Z" fill="#141114"/>
  <path fill-rule="evenodd" clip-rule="evenodd" d="M15.5105 1.00205C22.9966 0.993849 29.3165 6.70247 29.9447 14.0392C30.5997 21.6917 25.3619 28.4625 17.9415 29.7646C14.6953 30.3346 11.6647 29.8753 8.8477 28.3231C7.63944 27.6574 6.63644 27.9976 5.62138 28.3419C5.26684 28.4621 4.91084 28.5828 4.54411 28.6614C4.33438 28.7064 4.11834 28.8012 3.90139 28.8964C3.36646 29.1311 2.82605 29.3683 2.36151 28.8664C1.91275 28.3812 2.2167 27.7562 2.48632 27.2017C2.54483 27.0814 2.60173 26.9644 2.64897 26.8528C3.40661 25.0771 3.33885 23.5679 2.43543 21.6979C-2.18642 12.1486 4.93217 1.0123 15.5105 1V1.00205Z" fill="#141114"/>
  <path d="M12.4183 11.6237C12.367 9.50757 11.0426 7.38324 9.9544 7.48167C8.32617 7.6293 6.96488 10.0346 7.32009 12.1445C7.35294 12.3373 7.39606 12.5321 7.46382 12.7146C9.60329 18.3637 13.5332 22.0731 19.4034 23.6499C20.3233 23.896 21.2328 23.6848 22.0582 23.2132C23.2573 22.5263 24.3373 21.6692 23.7214 20.1087C23.2122 18.821 20.2904 18.0603 19.3213 18.985C17.9764 20.2666 16.7876 19.9754 15.4571 19.0753C14.3627 18.333 13.3895 17.4656 12.5394 16.467C11.521 15.2716 10.6361 14.0495 12.098 12.5362C12.2734 12.3535 12.3306 12.056 12.3735 11.8329C12.3893 11.7506 12.4032 11.6783 12.4203 11.6258L12.4183 11.6237Z" stroke="url(#paint0_linear_494_446)"/>
  <path fill-rule="evenodd" clip-rule="evenodd" d="M15.5105 1.00205C22.9966 0.993849 29.3165 6.70247 29.9447 14.0392C30.5997 21.6917 25.3619 28.4625 17.9415 29.7646C14.6953 30.3346 11.6647 29.8753 8.8477 28.3231C7.63944 27.6574 6.63644 27.9976 5.62138 28.3419C5.26684 28.4621 4.91084 28.5828 4.54411 28.6614C4.33438 28.7064 4.11834 28.8012 3.90139 28.8964C3.36646 29.1311 2.82605 29.3683 2.36151 28.8664C1.91275 28.3812 2.2167 27.7562 2.48632 27.2017C2.54483 27.0814 2.60173 26.9644 2.64897 26.8528C3.40661 25.0771 3.33885 23.5679 2.43543 21.6979C-2.18642 12.1486 4.93217 1.0123 15.5105 1V1.00205Z" stroke="url(#paint1_linear_494_446)"/>
  <defs>
    <linearGradient id="paint0_linear_494_446" x1="47.0947" y1="48.4189" x2="-5.80722" y2="45.8685" gradientUnits="userSpaceOnUse">
      <stop offset="0.187865" stop-color="#B8EAFF"/>
      <stop offset="0.324501" stop-color="#EBC2E2"/>
      <stop offset="0.425557" stop-color="#FFA5F6"/>
      <stop offset="0.973094" stop-color="#A35AFF"/>
    </linearGradient>
    <linearGradient id="paint1_linear_494_446" x1="47.0947" y1="48.4189" x2="-5.80722" y2="45.8685" gradientUnits="userSpaceOnUse">
      <stop offset="0.187865" stop-color="#B8EAFF"/>
      <stop offset="0.324501" stop-color="#EBC2E2"/>
      <stop offset="0.425557" stop-color="#FFA5F6"/>
      <stop offset="0.973094" stop-color="#A35AFF"/>
    </linearGradient>
  </defs>
</svg>