<svg width="99" height="15" viewBox="0 0 99 15" fill="none" xmlns="http://www.w3.org/2000/svg">
  <path d="M23.9241 11.9998V4.67776H25.4501V7.57576H26.1781L28.3341 4.67776H30.0421L27.3681 8.21976L30.3501 11.9998H28.5721L26.1641 8.96176H25.4501V11.9998H23.9241Z" fill="white"/>
  <path d="M34.4328 12.1398C33.8542 12.1398 33.3362 12.0418 32.8788 11.8458C32.4215 11.6404 32.0248 11.3604 31.6888 11.0058C31.3622 10.6511 31.1102 10.2498 30.9328 9.80176C30.7555 9.34442 30.6668 8.85909 30.6668 8.34576C30.6668 7.83242 30.7555 7.34709 30.9328 6.88976C31.1102 6.43242 31.3622 6.03109 31.6888 5.68576C32.0248 5.33109 32.4215 5.05576 32.8788 4.85976C33.3455 4.65442 33.8635 4.55176 34.4328 4.55176C35.0022 4.55176 35.5155 4.65442 35.9728 4.85976C36.4395 5.05576 36.8362 5.33109 37.1628 5.68576C37.4988 6.03109 37.7555 6.43242 37.9328 6.88976C38.1102 7.34709 38.1988 7.83242 38.1988 8.34576C38.1988 8.85909 38.1102 9.34442 37.9328 9.80176C37.7555 10.2498 37.4988 10.6511 37.1628 11.0058C36.8362 11.3604 36.4395 11.6404 35.9728 11.8458C35.5155 12.0418 35.0022 12.1398 34.4328 12.1398ZM32.2488 8.35976C32.2488 8.82642 32.3468 9.24642 32.5428 9.61976C32.7388 9.99309 33.0002 10.2871 33.3268 10.5018C33.6535 10.7164 34.0222 10.8238 34.4328 10.8238C34.8342 10.8238 35.1982 10.7164 35.5248 10.5018C35.8608 10.2778 36.1268 9.97909 36.3228 9.60576C36.5188 9.22309 36.6168 8.80309 36.6168 8.34576C36.6168 7.87909 36.5188 7.45909 36.3228 7.08576C36.1268 6.71242 35.8608 6.41842 35.5248 6.20376C35.1982 5.97976 34.8342 5.86776 34.4328 5.86776C34.0222 5.86776 33.6535 5.97976 33.3268 6.20376C33.0002 6.42776 32.7388 6.72642 32.5428 7.09976C32.3468 7.46376 32.2488 7.88376 32.2488 8.35976Z" fill="white"/>
  <path d="M39.5647 11.9998V4.67776H41.1607L43.6807 9.19976L46.2147 4.67776H47.7827V11.9998H46.3127V6.84776L44.1567 10.6978H43.1907L41.0207 6.84776V11.9998H39.5647Z" fill="white"/>
  <path d="M49.6272 11.9998V4.67776H51.1672V7.08576H52.9172C53.7852 7.08576 54.4432 7.30509 54.8912 7.74376C55.3485 8.18242 55.5772 8.76109 55.5772 9.47976C55.5772 9.96509 55.4792 10.3991 55.2832 10.7818C55.0872 11.1644 54.7979 11.4631 54.4152 11.6778C54.0419 11.8924 53.5752 11.9998 53.0152 11.9998H49.6272ZM51.1672 10.8098H52.7772C53.0852 10.8098 53.3325 10.7538 53.5192 10.6418C53.7059 10.5204 53.8459 10.3618 53.9392 10.1658C54.0325 9.96042 54.0792 9.74109 54.0792 9.50776C54.0792 9.27442 54.0372 9.06442 53.9532 8.87776C53.8692 8.68176 53.7292 8.52776 53.5332 8.41576C53.3465 8.29442 53.0899 8.23376 52.7632 8.23376H51.1672V10.8098Z" fill="white"/>
  <path d="M63.1323 12.1398C62.4883 12.1398 61.9143 12.0044 61.4103 11.7338C60.9156 11.4631 60.5143 11.0944 60.2063 10.6278C59.9076 10.1518 59.7163 9.61509 59.6323 9.01776H58.3723V11.9998H56.8323V4.67776H58.3723V7.67376H59.6323C59.7163 7.05776 59.9123 6.51642 60.2203 6.04976C60.5376 5.57376 60.9436 5.20509 61.4383 4.94376C61.9329 4.68242 62.4976 4.55176 63.1323 4.55176C63.8976 4.55176 64.5509 4.72442 65.0923 5.06976C65.6336 5.41509 66.0489 5.87242 66.3383 6.44176C66.6276 7.01109 66.7723 7.64576 66.7723 8.34576C66.7723 9.06442 66.6229 9.70842 66.3243 10.2778C66.0349 10.8471 65.6149 11.2998 65.0643 11.6358C64.5229 11.9718 63.8789 12.1398 63.1323 12.1398ZM63.1323 10.8238C63.5429 10.8238 63.9023 10.7211 64.2103 10.5158C64.5183 10.3011 64.7609 10.0118 64.9383 9.64776C65.1156 9.27442 65.2043 8.84042 65.2043 8.34576C65.2043 7.84176 65.1156 7.40776 64.9383 7.04376C64.7609 6.67042 64.5136 6.38109 64.1963 6.17576C63.8789 5.97042 63.5243 5.86776 63.1323 5.86776C62.7403 5.86776 62.3903 5.97042 62.0823 6.17576C61.7836 6.38109 61.5503 6.67042 61.3823 7.04376C61.2143 7.41709 61.1303 7.85109 61.1303 8.34576C61.1303 8.84976 61.2143 9.28842 61.3823 9.66176C61.5596 10.0351 61.7976 10.3244 62.0963 10.5298C62.4043 10.7258 62.7496 10.8238 63.1323 10.8238Z" fill="white"/>
  <path d="M68.1526 11.9998V4.67776H69.6926V7.58976H73.0946V4.67776H74.6346V11.9998H73.0946V8.91976H69.6926V11.9998H68.1526Z" fill="white"/>
  <path d="M76.4924 11.9998V4.69176H78.0324V9.94176L81.7424 4.67776H83.1424V11.9998H81.6024V6.86176L77.9344 11.9998H76.4924Z" fill="white"/>
  <path d="M86.7187 11.9998V6.03576H84.2967V4.67776H90.6947V6.03576H88.2587V11.9998H86.7187Z" fill="white"/>
  <path d="M91.8459 11.9998V4.69176H93.3859V9.94176L97.0959 4.67776H98.4959V11.9998H96.9559V6.86176L93.2879 11.9998H91.8459Z" fill="white"/>
  <path fill-rule="evenodd" clip-rule="evenodd" d="M2.17635 1.20968C1.65027 1.20968 1.21712 1.6365 1.21712 2.20162H0.000594007C0.000594007 1.00299 0.944149 0 2.17635 0C3.41893 0 4.33143 1.01373 4.33143 2.20162H3.1149C3.1149 1.62576 2.69204 1.20968 2.17635 1.20968ZM3.11431 12.8345C3.09628 13.3816 2.67047 13.7903 2.15567 13.7903C1.63999 13.7903 1.21712 13.3742 1.21712 12.7984L1.21653 7.51383L4.16332 4.43298C4.27086 4.32055 4.33083 4.17131 4.33083 4.01615L4.33143 2.20162H3.1149L3.11431 3.77444L0.167517 6.85529C0.0599733 6.96772 0 7.11696 0 7.27213V12.8425C0.0222682 14.0113 0.9285 15 2.15567 15C3.38787 15 4.33143 13.997 4.33143 12.7984L4.33083 7.82382L10.6433 1.5707C11.0508 1.17684 11.6606 1.18833 12.0272 1.56347C12.3622 1.90624 12.3781 2.45255 12.0336 2.85224L5.90917 8.83462C5.67243 9.06588 5.66579 9.44315 5.89425 9.6825L10.2768 14.2738L10.2753 14.2753C10.2883 14.2882 10.3015 14.301 10.3148 14.3136L10.3515 14.352L10.3539 14.3498C11.2001 15.1165 12.5144 15.1725 13.3682 14.3235C14.2391 13.4575 14.1909 12.0856 13.3392 11.2387L13.3348 11.2431L10.4652 8.37952L9.60347 9.23338L12.4886 12.1125L12.493 12.1082C12.8814 12.5085 12.8739 13.1042 12.5079 13.4681C12.1582 13.8159 11.584 13.8297 11.1732 13.4557L7.18822 9.28094L12.8058 3.79364L12.8088 3.79664C12.8456 3.76103 12.8811 3.72441 12.9151 3.68688L12.9206 3.68157C13.6707 2.84908 13.7287 1.56863 12.8996 0.72039C12.0637 -0.134918 10.733 -0.132843 9.8655 0.638382L9.86311 0.635996L3.29328 7.14411C3.17871 7.25761 3.11431 7.4118 3.11431 7.57261L3.11431 12.8345ZM1.21712 3.79664V2.20162H0.000594007V5.12968L1.21712 3.79664Z" fill="white"/>
</svg>