<svg width="44" height="25" viewBox="0 0 44 25" fill="none" xmlns="http://www.w3.org/2000/svg">
  <path d="M38.2677 16.8428C37.8919 16.4835 37.5161 16.1242 37.146 15.7592C35.8899 14.5217 35.8099 13.8042 36.8216 12.3792C37.4081 11.5487 38.0186 10.7355 38.6293 9.92223L38.6295 9.92199C39.165 9.20875 39.7007 8.49543 40.2201 7.77026L40.3301 7.6166C41.3318 6.21799 42.338 4.81316 42.8648 3.13851C43.2118 2.03363 42.9045 1.54627 41.7829 1.35257C41.5886 1.31864 41.3894 1.31679 41.1933 1.31679L34.5379 1.30877C33.7181 1.29643 33.266 1.65732 32.9752 2.39082C32.5842 3.38281 32.1816 4.37295 31.7149 5.32977C30.6573 7.49943 29.4764 9.59569 27.819 11.3718C27.7957 11.3967 27.7722 11.422 27.7486 11.4476L27.7481 11.4481L27.7481 11.4481C27.401 11.823 27.0112 12.2439 26.4395 12.0534C25.6771 11.7728 25.451 10.5019 25.4639 10.0732L25.4578 2.31741C25.3099 1.20945 25.0656 0.71592 23.9763 0.5L17.0649 0.501231C13.1417 0.501231 17.1755 2.94781 17.3661 4.24216C17.641 6.09844 17.6221 7.9615 17.4632 9.82518C17.4168 10.3693 17.3245 10.9122 17.1107 11.4199C16.7765 12.2188 16.2365 12.381 15.5278 11.89C14.8857 11.4452 14.4349 10.8172 13.9932 10.1873C12.3357 7.82208 11.0131 5.27178 9.9342 2.59132C9.62202 1.8171 9.0844 1.34763 8.27187 1.33467C6.27538 1.3026 4.27888 1.29766 2.28238 1.33653C1.08069 1.35935 0.72269 1.94788 1.21204 3.04783C3.38632 7.93188 5.80619 12.6796 8.96589 17.0054C10.5885 19.2244 12.4506 21.1843 14.8564 22.573C17.5836 24.1473 20.5178 24.6211 23.6103 24.4749C25.0576 24.4064 25.4926 24.0258 25.5592 22.5693C25.6056 21.5729 25.7168 20.581 26.2037 19.6858C26.6815 18.8061 27.406 18.6383 28.2399 19.1861C28.6578 19.4594 29.0085 19.8067 29.3414 20.1756C29.6111 20.4731 29.8775 20.7738 30.1439 21.0744L30.144 21.0746L30.144 21.0746C30.6827 21.6825 31.2215 22.2906 31.7876 22.8722C32.8475 23.9628 34.1048 24.6063 35.6846 24.4743L41.8018 24.4755C42.7866 24.4095 43.2986 23.1911 42.7316 22.08C42.3345 21.3009 41.8128 20.6081 41.2593 19.9381C40.3422 18.8264 39.305 17.8347 38.2677 16.8429L38.2677 16.8428Z" fill="#141114" stroke="url(#paint0_linear_494_444)"/>
  <defs>
    <linearGradient id="paint0_linear_494_444" x1="67.7579" y1="39.7432" x2="-8.49406" y2="33.3101" gradientUnits="userSpaceOnUse">
      <stop offset="0.187865" stop-color="#B8EAFF"/>
      <stop offset="0.324501" stop-color="#EBC2E2"/>
      <stop offset="0.425557" stop-color="#FFA5F6"/>
      <stop offset="0.973094" stop-color="#A35AFF"/>
    </linearGradient>
  </defs>
</svg>